<svg xmlns="http://www.w3.org/2000/svg" width="512" height="512" viewBox="0 0 512 512">
  <rect width="512" height="512" rx="112" fill="#fff"/>
  <g transform="translate(76,76)" fill="none" stroke="#000" stroke-width="40" stroke-linecap="round" stroke-linejoin="round">
    <path d="M288 48a48 48 0 0 0-48 48v192a48 48 0 0 0 48 48 48 48 0 0 0 48-48 48 48 0 0 0-48-48H72a48 48 0 0 0-48 48 48 48 0 0 0 48 48 48 48 0 0 0 48-48V96a48 48 0 0 0-48-48 48 48 0 0 0-48 48 48 48 0 0 0 48 48h216a48 48 0 0 0 48-48 48 48 0 0 0-48-48z"/>
  </g>
</svg>
